<?xml version="1.0" encoding="utf-8"?>
<svg viewBox="0 0 171.79663 127.52864" xmlns="http://www.w3.org/2000/svg">
  <path d="M 84.449 105.46 C 85.033 109.849 73.746 117.509 60.597 121.834 C 49.553 125.467 36.829 126.204 32.306 125.997 C 20.88 125.473 10.282 121.265 10.282 121.265 L 19.112 118.516 L 7.888 113.804 C 7.888 113.804 13.462 113.74 19.602 110.074 C 28.689 104.648 40.665 94.805 51.037 93.822 C 68.416 92.175 83.375 97.386 84.449 105.461 L 84.449 105.46 Z" data-paper-data="{&quot;index&quot;:null}" fill="#d7835f" fill-rule="nonzero" stroke="#000000" stroke-width="3" stroke-linecap="butt" stroke-linejoin="miter" stroke-miterlimit="10" stroke-dasharray="" stroke-dashoffset="0" style="mix-blend-mode: normal;"/>
  <path d="M 40.769 32.832 C 44.383 32.886 49.756 33.763 56.69 35.444 C 68.868 38.394 73.46 41.509 71.98 43.621 C 71.517 44.282 71.663 43.817 66.121 41.274 C 64.98 40.75 58.232 38.712 51.387 37.649 C 46.882 36.95 42.843 37.078 39.495 36.383 C 38.2 36.114 38.755 32.801 40.769 32.832 L 40.769 32.832 Z" data-paper-data="{&quot;index&quot;:null}" fill="#000000" fill-rule="nonzero" stroke="#000216" stroke-width="3" stroke-linecap="butt" stroke-linejoin="miter" stroke-miterlimit="10" stroke-dasharray="" stroke-dashoffset="0" style="mix-blend-mode: normal;"/>
  <path d="M 60.178 121.716 C 59.549 121.659 41.81 119.09 28.893 107.269 C 25.077 103.776 23.325 107.143 20.916 101.861 C 18.357 96.251 10.907 88.596 11.355 78.813 C 12.283 58.508 24.933 33.897 42.788 25.439 C 55.507 19.414 77.287 19.473 91.909 23.277 C 96.119 24.372 103.906 26.038 109.421 30.575 C 114.755 34.962 117.86 42.143 119.581 47.775 C 121.975 55.611 122.01 77.241 121.695 81.015 C 121.695 81.015 130.927 90.211 126.558 99.697 C 126.44 99.953 123.966 106.14 117.357 110.893 C 112.46 114.416 107.284 116.433 100.54 118.893 C 86.47 124.026 64.144 122.075 60.178 121.716 L 60.178 121.716 Z" data-paper-data="{&quot;index&quot;:null}" fill="#ffdcb2" fill-rule="nonzero" stroke="#000000" stroke-width="3" stroke-linecap="butt" stroke-linejoin="miter" stroke-miterlimit="10" stroke-dasharray="" stroke-dashoffset="0" style="mix-blend-mode: normal;"/>
  <path d="M 27.355 105.641 C 27.355 105.641 20.588 111.627 14.609 109.531 C 12.514 108.796 9.388 106.614 7.315 104.46 C 6.312 103.418 2.701 98.47 1.559 93.392 C 0.271 87.663 1.572 81.644 2.86 78.559 C 4.294 75.123 7.41 72.986 9.685 72.591 C 10.838 72.39 13.741 72.389 16.198 73.392" data-paper-data="{&quot;index&quot;:null}" fill="#ffdcb2" fill-rule="nonzero" stroke="#000000" stroke-width="3" stroke-linecap="round" stroke-linejoin="miter" stroke-miterlimit="10" stroke-dasharray="" stroke-dashoffset="0" style="mix-blend-mode: normal;"/>
  <g data-paper-data="{&quot;index&quot;:null}" fill="#ffffff" fill-rule="nonzero" stroke-width="3" transform="matrix(1, 0, 0, 1, -155.8216552734375, -116.24037933349608)" stroke-linejoin="miter" stroke-miterlimit="10" stroke-dasharray="" stroke-dashoffset="0" style="mix-blend-mode: normal;">
    <path d="M242.73116,200.82892c-0.98199,-8.53191 4.72431,-20.73099 13.83248,-22.11813c0.38165,-0.05812 1.51148,4.44848 1.90209,4.41274c9.71313,-0.88904 18.41665,5.59653 19.4398,14.48591c1.02316,8.88938 -6.02144,16.81635 -15.73455,17.70538c-4.75022,0.4348 -10.16238,0.78832 -13.64937,-1.72304c-3.64314,-2.62382 -5.26761,-8.2208 -5.79041,-12.76285z" stroke="none" stroke-linecap="butt"/>
    <path d="M245.65006,187.61903c0,0 1.14476,-3.66883 3.58364,-6.00014c2.74312,-2.62215 6.9599,-3.96134 9.87552,-4.37321c5.53217,-0.78149 11.7905,2.34757 13.98083,4.55309c1.69494,1.70667 6.08063,6.10396 6.47676,10.74972c0.27147,3.18359 -0.58335,9.45452 -2.59557,14.32231" data-paper-data="{&quot;index&quot;:null}" stroke="#000216" stroke-linecap="round"/>
  </g>
  <g data-paper-data="{&quot;index&quot;:null}" fill-rule="nonzero" stroke="none" stroke-width="0" stroke-linecap="butt" transform="matrix(1, 0, 0, 1, -155.8216552734375, -116.24037933349608)" stroke-linejoin="miter" stroke-miterlimit="10" stroke-dasharray="" stroke-dashoffset="0" style="mix-blend-mode: normal;">
    <path d="M271.25215,197.28101c0,8.27891 -5.10154,14.99029 -11.39462,14.99029c-6.29309,0 -11.39464,-6.71137 -11.39464,-14.99028c0,-8.27891 5.10155,-14.99033 11.39464,-14.99033c6.29309,0 11.39462,6.7114 11.39462,14.99033z" fill="#000000"/>
    <path d="M246.29553,194.64174l10.45837,8.67284l-7.70616,2.57841c0,0 -1.93738,-3.41972 -2.37853,-5.22313c-0.47391,-1.9374 -0.37368,-6.02812 -0.37368,-6.02812z" fill="#ffffff"/>
  </g>
  <path d="M 46.686 61.982 C 41.191 64.882 36.551 71.365 36.551 71.365 C 36.551 71.365 37.592 63.734 37.191 65.485 C 36.065 70.397 33.377 84.574 35.1 91.044 C 37.084 98.494 40.206 103.7 40.206 103.7 C 40.206 103.7 29.814 103.334 25.413 96.938 C 19.377 88.166 16.736 75.123 16.024 73.662 C 14.617 70.775 5.857 74.879 5.857 74.879 C 5.857 74.879 1.978 66.954 1.498 58.486 C 1.319 55.339 2.701 46.569 7.352 37.434 C 8.108 35.948 3.792 29.084 5.593 23.02 C 6.474 20.055 8.425 16.442 10.798 13.924 C 13.121 11.459 15.876 10.057 15.876 10.057 C 15.876 10.057 16.269 24.931 18.601 22.955 C 24.553 17.914 32.98 12.727 41.697 8.926 C 51.282 4.747 62.269 2.47 63.392 2.338 C 66.141 2.014 69.436 1.569 72.768 1.5 C 75.877 1.435 79.017 1.741 81.774 1.612 C 83.348 1.539 102.244 2.912 117.151 7.865 C 132.459 12.952 143.76 23.651 143.252 25.776 C 139.168 42.876 66.427 52.671 66.427 52.671 C 66.427 52.671 51.686 59.342 46.686 61.982 L 46.686 61.982 Z" data-paper-data="{&quot;index&quot;:null}" fill="#d7835f" fill-rule="nonzero" stroke="#000000" stroke-width="3" stroke-linecap="butt" stroke-linejoin="miter" stroke-miterlimit="10" stroke-dasharray="" stroke-dashoffset="0" style="mix-blend-mode: normal;"/>
  <path d="M 137.65 19.265 C 139.063 19.824 140.155 20.665 141.411 21.198 C 143.43 22.056 145.474 22.517 146.976 22.717 C 152.335 23.427 157.796 22.173 161.71 20.856 C 165.099 19.716 167.329 18.528 167.329 18.528 C 167.329 18.528 161.959 26.718 158.407 29.794 C 157.104 30.922 154.828 32.472 152.535 33.639 C 148.945 35.466 145.315 36.717 145.315 36.717 C 145.315 36.717 148.367 37.988 151.518 40.521 C 154.048 42.555 156.642 45.669 157.77 47.587 C 160.539 52.293 161.283 63.859 161.283 63.859 C 161.283 63.859 153.329 56.494 149.72 54.511 C 147.267 53.162 142.244 53.11 142.244 53.11 C 142.244 53.11 142.657 55.459 142.637 58.557 C 142.612 62.605 141.512 67.931 140.157 70.964 C 139.075 73.386 136.911 77.281 134.388 80.188 C 130.583 84.573 128.225 87.667 128.225 87.667 C 128.225 87.667 122.32 71.71 118.511 65.961 C 115.007 60.671 104.276 52.582 104.276 52.582 C 104.276 52.582 95.685 59.437 93.874 62.598 C 91.977 65.908 86.235 72.016 86.235 72.016 C 86.235 72.016 79.601 60.398 76.084 56.705 C 73.31 53.792 66.83 51.636 66.83 51.636 C 66.83 51.636 57.149 57.597 52.663 59.837 C 47.345 62.491 36.99 66.532 36.99 66.532" data-paper-data="{&quot;index&quot;:null}" fill="#d7835f" fill-rule="nonzero" stroke="#000000" stroke-width="3" stroke-linecap="round" stroke-linejoin="miter" stroke-miterlimit="10" stroke-dasharray="" stroke-dashoffset="0" style="mix-blend-mode: normal;"/>
  <g data-paper-data="{&quot;index&quot;:null}" fill="#ffffff" fill-rule="nonzero" stroke-width="3" transform="matrix(1, 0, 0, 1, -155.8216552734375, -116.24037933349608)" stroke-linejoin="miter" stroke-miterlimit="10" stroke-dasharray="" stroke-dashoffset="0" style="mix-blend-mode: normal;">
    <path d="M235.73655,201.04901c-0.61826,4.80706 -2.53935,10.73061 -6.84768,13.50753c-4.12367,2.65791 -10.52404,2.28374 -16.1416,1.82359c-11.48661,-0.94091 -19.81746,-9.33043 -18.60749,-18.73847c1.20998,-9.40805 11.50265,-16.27203 22.98927,-15.33114c0.46194,0.03785 1.79805,-4.73172 2.24937,-4.67022c10.77122,1.46808 17.51943,14.37898 16.35813,23.4087z" stroke="none" stroke-linecap="butt"/>
    <path d="M195.24471,207.44344c-2.37962,-5.15181 -3.3905,-11.78863 -3.0695,-15.158c0.46845,-4.91684 5.65492,-9.57071 7.65932,-11.37695c2.59025,-2.33419 9.99127,-5.64588 16.53357,-4.81876c3.44798,0.4359 8.43471,1.85324 11.67867,4.62839c2.88417,2.46734 4.23796,6.35024 4.23796,6.35024" data-paper-data="{&quot;index&quot;:null}" stroke="#000216" stroke-linecap="round"/>
  </g>
  <g data-paper-data="{&quot;index&quot;:null}" fill-rule="nonzero" stroke="none" stroke-width="0" stroke-linecap="butt" transform="matrix(1, 0, 0, 1, -155.8216552734375, -116.24037933349608)" stroke-linejoin="miter" stroke-miterlimit="10" stroke-dasharray="" stroke-dashoffset="0" style="mix-blend-mode: normal;">
    <path d="M229.70218,197.28101c0,8.27891 -4.88867,14.99029 -10.91916,14.99029c-6.0305,0 -10.91918,-6.71137 -10.91918,-14.99028c0,-8.27891 4.88869,-14.99033 10.91919,-14.99033c6.0305,0 10.91916,6.7114 10.91916,14.99033z" fill="#000000"/>
    <path d="M206.24515,194.64174l10.02198,8.67284l-7.38461,2.57841c0,0 -1.85654,-3.41972 -2.27928,-5.22313c-0.45414,-1.9374 -0.35809,-6.02812 -0.35809,-6.02812z" fill="#ffffff"/>
  </g>
  <path d="M 41.973 57.902 C 41.973 57.902 41.276 53.395 42.37 51.242 C 43.336 49.341 48.202 45.645 48.202 45.645 C 48.202 45.645 73.843 64.117 78.928 67.781 C 80.607 68.99 81.929 68.417 81.929 68.417 L 78.475 74.963 C 78.475 74.963 77.162 74.237 71.862 70.914 C 65.044 66.64 41.973 57.902 41.973 57.902 L 41.973 57.902 Z" data-paper-data="{&quot;index&quot;:null}" fill="#000000" fill-rule="nonzero" stroke="#000000" stroke-width="0" stroke-linecap="butt" stroke-linejoin="miter" stroke-miterlimit="10" stroke-dasharray="" stroke-dashoffset="0" style="mix-blend-mode: normal;"/>
  <path d="M 124.71 57.235 C 124.71 57.235 101.639 65.973 94.821 70.248 C 89.521 73.571 88.208 74.296 88.208 74.296 L 84.754 67.75 C 84.754 67.75 86.076 68.324 87.755 67.114 C 92.84 63.451 118.481 44.979 118.481 44.979 C 118.481 44.979 123.347 48.674 124.313 50.575 C 125.407 52.728 124.71 57.235 124.71 57.235 L 124.71 57.235 Z" data-paper-data="{&quot;index&quot;:null}" fill="#000000" fill-rule="nonzero" stroke="#000000" stroke-width="0" stroke-linecap="butt" stroke-linejoin="miter" stroke-miterlimit="10" stroke-dasharray="" stroke-dashoffset="0" style="mix-blend-mode: normal;"/>
  <path d="M 97.964 106.799 C 97.864 107.925 95.549 110.292 91.02 113.901 C 86.651 117.378 83.995 119.168 83.051 119.268 C 82.288 119.358 80.239 117.63 76.905 114.081 C 73.711 110.694 71.351 107.834 69.825 105.502 C 68.961 104.105 70.116 103.211 73.289 102.819 L 78.291 102.653 L 88.218 103.799 C 94.806 104.774 98.055 105.774 97.964 106.799" fill="#000000" fill-rule="evenodd" stroke="none" stroke-width="1" stroke-linecap="butt" stroke-linejoin="miter" stroke-miterlimit="10" stroke-dasharray="" stroke-dashoffset="0" style="mix-blend-mode: normal;"/>
</svg>